<svg width="80" height="80" viewBox="0 0 80 80" fill="none" xmlns="http://www.w3.org/2000/svg">
<g filter="url(#filter0_dd_373_10915)">
<rect x="12" y="2" width="56" height="56" rx="12" fill="url(#paint0_linear_373_10915)"/>
<path d="M33.75 42.5V37.5H25L29.8125 30H27.5L36.25 17.5L40 22.875L43.75 17.5L52.5 30H50.1875L55 37.5H46.25V42.5H41.25V37.5H38.75V42.5H33.75ZM45.9062 35H50.4375L45.5938 27.5H47.6875L43.75 21.875L41.5312 25.0312L45 30H42.6875L45.9062 35ZM29.5625 35H42.9375L38.0938 27.5H40.1875L36.25 21.875L32.3125 27.5H34.4062L29.5625 35ZM29.5625 35H34.4062H32.3125H36.25H40.1875H38.0938H42.9375H29.5625ZM45.9062 35H42.6875H45H41.5312H43.75H47.6875H45.5938H50.4375H45.9062Z" fill="white"/>
</g>
<defs>
<filter id="filter0_dd_373_10915" x="0" y="0" width="80" height="80" filterUnits="userSpaceOnUse" color-interpolation-filters="sRGB">
<feFlood flood-opacity="0" result="BackgroundImageFix"/>
<feColorMatrix in="SourceAlpha" type="matrix" values="0 0 0 0 0 0 0 0 0 0 0 0 0 0 0 0 0 0 127 0" result="hardAlpha"/>
<feMorphology radius="4" operator="erode" in="SourceAlpha" result="effect1_dropShadow_373_10915"/>
<feOffset dy="4"/>
<feGaussianBlur stdDeviation="3"/>
<feComposite in2="hardAlpha" operator="out"/>
<feColorMatrix type="matrix" values="0 0 0 0 0 0 0 0 0 0 0 0 0 0 0 0 0 0 0.1 0"/>
<feBlend mode="normal" in2="BackgroundImageFix" result="effect1_dropShadow_373_10915"/>
<feColorMatrix in="SourceAlpha" type="matrix" values="0 0 0 0 0 0 0 0 0 0 0 0 0 0 0 0 0 0 127 0" result="hardAlpha"/>
<feMorphology radius="3" operator="erode" in="SourceAlpha" result="effect2_dropShadow_373_10915"/>
<feOffset dy="10"/>
<feGaussianBlur stdDeviation="7.5"/>
<feComposite in2="hardAlpha" operator="out"/>
<feColorMatrix type="matrix" values="0 0 0 0 0 0 0 0 0 0 0 0 0 0 0 0 0 0 0.1 0"/>
<feBlend mode="normal" in2="effect1_dropShadow_373_10915" result="effect2_dropShadow_373_10915"/>
<feBlend mode="normal" in="SourceGraphic" in2="effect2_dropShadow_373_10915" result="shape"/>
</filter>
<linearGradient id="paint0_linear_373_10915" x1="12" y1="2" x2="68" y2="58" gradientUnits="userSpaceOnUse">
<stop stop-color="#746456"/>
<stop offset="1" stop-color="#513C2E"/>
</linearGradient>
</defs>
</svg>
