<svg width="24" height="24" viewBox="0 0 24 24" fill="none" xmlns="http://www.w3.org/2000/svg">
<path d="M9 5C9 4.73478 8.89464 4.48043 8.70711 4.29289C8.51957 4.10536 8.26522 4 8 4H6C5.73478 4 5.48043 4.10536 5.29289 4.29289C5.10536 4.48043 5 4.73478 5 5V19C5 19.2652 5.10536 19.5196 5.29289 19.7071C5.48043 19.8946 5.73478 20 6 20H8C8.26522 20 8.51957 19.8946 8.70711 19.7071C8.89464 19.5196 9 19.2652 9 19M9 5V19M9 5C9 4.73478 9.10536 4.48043 9.29289 4.29289C9.48043 4.10536 9.73478 4 10 4H12C12.2652 4 12.5196 4.10536 12.7071 4.29289C12.8946 4.48043 13 4.73478 13 5V19C13 19.2652 12.8946 19.5196 12.7071 19.7071C12.5196 19.8946 12.2652 20 12 20H10C9.73478 20 9.48043 19.8946 9.29289 19.7071C9.10536 19.5196 9 19.2652 9 19M5 8H9M9 16H13" stroke="#746456" stroke-width="1.5" stroke-linecap="round" stroke-linejoin="round"/>
<path d="M14 8.99955L18 7.99955M16 15.9996L19.923 15.0196M13.803 4.55955L15.987 4.02955C16.549 3.89455 17.12 4.21955 17.269 4.76155L20.964 18.1796C21.0292 18.4252 21.0003 18.6863 20.8831 18.9118C20.7658 19.1373 20.5686 19.3109 20.33 19.3986L20.197 19.4396L18.013 19.9696C17.451 20.1046 16.88 19.7796 16.731 19.2376L13.036 5.81955C12.9708 5.5739 12.9997 5.31277 13.117 5.08729C13.2342 4.86181 13.4315 4.68823 13.67 4.60055L13.803 4.55955Z" stroke="#746456" stroke-width="1.5" stroke-linecap="round" stroke-linejoin="round"/>
</svg>
